<svg width="40" height="40" viewBox="0 0 40 40" fill="none" xmlns="http://www.w3.org/2000/svg">
<g clip-path="url(#clip0_1012_82)">
<path d="M35.7236 2.4104C35.723 2.40978 19.4379 18.6949 19.4379 18.6949L22.1379 21.395L35.7236 7.80954C37.2144 6.31868 37.2144 3.90126 35.7236 2.4104Z" fill="#C8DB86" stroke="black"/>
<path d="M33.4481 5.53626L19.8637 19.1207L16.739 15.996L30.3246 2.4104C31.8153 0.919619 34.2317 0.919619 35.7231 2.40978L35.2682 2.86462C35.5029 3.09938 34.686 4.29845 33.4481 5.53626Z" fill="#D4ED85" stroke="black"/>
<path d="M28.8589 2.69527C28.6077 2.44402 28.2004 2.44402 27.9492 2.69527C27.6979 2.94652 27.6979 3.35387 27.9492 3.60504L28.5374 4.19324L29.4471 3.28348L28.8589 2.69527Z" fill="#594B44" stroke="black"/>
<path d="M27.3497 4.20467C27.0984 3.95342 26.6911 3.95342 26.4399 4.20467C26.1887 4.45592 26.1887 4.86327 26.4399 5.11444L27.0281 5.70264L27.9379 4.79288L27.3497 4.20467Z" fill="#594B44" stroke="black"/>
<path d="M24.9306 5.71395C24.6794 5.9652 24.6794 6.37255 24.9306 6.62372L25.5188 7.21192L26.4286 6.30216L25.8404 5.71395C25.5891 5.46278 25.1818 5.46278 24.9306 5.71395Z" fill="#594B44" stroke="black"/>
<path d="M23.4212 7.22335C23.17 7.4746 23.17 7.88194 23.4212 8.13311L24.0094 8.72132L24.9192 7.81155L24.331 7.22335C24.0798 6.9721 23.6725 6.9721 23.4212 7.22335Z" fill="#594B44" stroke="black"/>
<path d="M21.9119 8.73263C21.6607 8.98388 21.6607 9.39122 21.9119 9.64239L22.5002 10.2306L23.4099 9.32083L22.8217 8.73263C22.5705 8.48146 22.1631 8.48146 21.9119 8.73263Z" fill="#594B44" stroke="black"/>
<path d="M20.4025 10.242C20.1513 10.4933 20.1513 10.9006 20.4025 11.1518L20.9908 11.74L21.9005 10.8302L21.3123 10.242C21.0611 9.99078 20.6538 9.99078 20.4025 10.242Z" fill="#594B44" stroke="black"/>
<path d="M18.8933 11.7513C18.642 12.0026 18.642 12.4099 18.8933 12.6611L19.4815 13.2493L20.3912 12.3395L19.803 11.7513C19.5518 11.5001 19.1444 11.5001 18.8933 11.7513Z" fill="#594B44" stroke="black"/>
<path d="M17.3839 13.2607C17.1326 13.512 17.1326 13.9193 17.3839 14.1705L17.9721 14.7587L18.8818 13.8489L18.2936 13.2607C18.0425 13.0095 17.6351 13.0095 17.3839 13.2607Z" fill="#594B44" stroke="black"/>
<path d="M36.7303 1.3279C36.479 1.07665 36.0717 1.07665 35.8205 1.3279L35.2506 1.89782L36.1604 2.80759L36.7303 2.23767C36.9815 1.98634 36.9815 1.57907 36.7303 1.3279Z" fill="#594B44" stroke="black"/>
<path d="M34.9168 0.820467C34.9846 0.471717 34.757 0.134061 34.4083 0.0660918C34.0595 -0.00172075 33.7219 0.225857 33.6539 0.574607L33.5059 1.33531L34.7687 1.58117L34.9168 0.820467Z" fill="#594B44" stroke="black"/>
<path d="M31.9133 0.0119419C31.5646 0.0797544 31.3369 0.417567 31.4048 0.766317L31.5493 1.50858L32.8121 1.26272L32.6677 0.520458C32.5997 0.17202 32.2621 -0.0558706 31.9133 0.0119419Z" fill="#594B44" stroke="black"/>
<path d="M29.6519 1.09348C29.3559 1.28996 29.2753 1.68926 29.4719 1.98528L29.9106 2.64582L30.9823 1.93418L30.5437 1.27364C30.347 0.977698 29.9479 0.896995 29.6519 1.09348Z" fill="#594B44" stroke="black"/>
<path d="M38.0661 3.72398C37.9981 3.37531 37.6605 3.14757 37.3117 3.21546L36.551 3.36351L36.7969 4.6264L37.5576 4.47835C37.9063 4.41046 38.134 4.07265 38.0661 3.72398Z" fill="#594B44" stroke="black"/>
<path d="M38.1203 6.21896C38.1881 5.87013 37.9603 5.53255 37.6118 5.46458L36.8695 5.32013L36.6237 6.58302L37.3659 6.72747C37.7147 6.79529 38.0525 6.56755 38.1203 6.21896Z" fill="#594B44" stroke="black"/>
<path d="M37.0388 8.48037C37.2352 8.18436 37.1544 7.78529 36.8588 7.58857L36.1982 7.1499L35.4866 8.2217L36.1471 8.66037C36.4431 8.85701 36.8423 8.77639 37.0388 8.48037Z" fill="#594B44" stroke="black"/>
<path d="M35.4369 9.27326L34.8487 8.68506L33.939 9.59482L34.5272 10.183C34.7784 10.4343 35.1858 10.4343 35.4369 10.183C35.6882 9.93186 35.6882 9.52451 35.4369 9.27326Z" fill="#594B44" stroke="black"/>
<path d="M33.9275 10.7827L33.3393 10.1945L32.4296 11.1042L33.0178 11.6924C33.269 11.9437 33.6764 11.9437 33.9275 11.6924C34.1788 11.4412 34.1788 11.0338 33.9275 10.7827Z" fill="#594B44" stroke="black"/>
<path d="M32.4183 12.2919L31.8301 11.7037L30.9203 12.6135L31.5085 13.2017C31.7597 13.453 32.1671 13.453 32.4183 13.2017C32.6695 12.9505 32.6696 12.5432 32.4183 12.2919Z" fill="#594B44" stroke="black"/>
<path d="M30.9089 13.8013L30.3207 13.2131L29.4109 14.1229L29.9991 14.7111C30.2503 14.9624 30.6577 14.9624 30.9089 14.7111C31.1601 14.4598 31.1602 14.0525 30.9089 13.8013Z" fill="#594B44" stroke="black"/>
<path d="M29.3997 15.3106L28.8115 14.7224L27.9017 15.6321L28.4899 16.2203C28.7412 16.4716 29.1485 16.4716 29.3997 16.2203C29.651 15.9691 29.651 15.5619 29.3997 15.3106Z" fill="#594B44" stroke="black"/>
<path d="M27.8903 16.8199L27.3021 16.2317L26.3923 17.1415L26.9805 17.7297C27.2318 17.9809 27.6391 17.9809 27.8903 17.7297C28.1416 17.4784 28.1416 17.0711 27.8903 16.8199Z" fill="#594B44" stroke="black"/>
<path d="M26.381 18.3293L25.7928 17.7411L24.8831 18.6509L25.4713 19.2391C25.7225 19.4903 26.1299 19.4903 26.381 19.2391C26.6322 18.9878 26.6323 18.5805 26.381 18.3293Z" fill="#594B44" stroke="black"/>
<path d="M24.8716 19.8387L24.2834 19.2505L23.3737 20.1603L23.9619 20.7485C24.2131 20.9997 24.6205 20.9997 24.8716 20.7485C25.1229 20.4971 25.1229 20.0899 24.8716 19.8387Z" fill="#594B44" stroke="black"/>
<path d="M22.3192 22.1243L21.4094 21.2145L35.2677 7.35642C36.5061 6.11806 36.5061 4.10306 35.2677 2.8647C34.0293 1.62634 32.0143 1.62634 30.776 2.8647L16.9177 16.7228L16.0079 15.8131L29.8661 1.95493C31.6061 0.214853 34.4374 0.214932 36.1775 1.95493C37.9175 3.69493 37.9175 6.5261 36.1775 8.26618L22.3192 22.1243Z" fill="#5D734F" stroke="black"/>
<path d="M13.0217 34.8795L8.40203 39.4992C7.73429 40.1669 6.64257 40.1669 5.97484 39.4992L2.32914 35.8523C2.0289 35.5521 1.82453 34.962 1.87546 34.5411L3.03328 24.891L5.40351 24.8351L5.34765 27.2054L4.4864 34.3719L7.18781 37.0733L12.4146 31.8465L13.0217 34.8795Z" fill="#D35B38" stroke="black"/>
<path d="M22.3188 25.5812C23.5251 24.3748 23.5251 22.4207 22.3188 21.2143L20.4993 19.3948L11.2023 33.06L13.0217 34.8794L22.3188 25.5812Z" fill="#FD830C" stroke="black"/>
<path d="M20.4993 23.7617L11.2023 33.06L3.03328 24.8911C1.8282 23.686 1.8282 21.7306 3.03266 20.5248L10.1476 13.4099C11.3539 12.2036 13.3086 12.2042 14.5145 13.4099L20.4994 19.3948C21.7055 20.6012 21.7055 22.5554 20.4993 23.7617Z" fill="#FE9837" stroke="black"/>
<path d="M18.0242 23.9902L4.67391 10.6399C4.42266 10.3886 4.42266 9.9813 4.67391 9.73012C4.92516 9.47887 5.3325 9.47887 5.58368 9.73012L18.934 23.0804C19.1852 23.3317 19.1852 23.739 18.934 23.9902C18.6828 24.2414 18.2755 24.2414 18.0242 23.9902Z" fill="#594B44" stroke="black"/>
<path d="M12.3845 31.8775L10.5644 30.0574C10.3132 29.8062 10.3132 29.3988 10.5644 29.1477C10.8157 28.8964 11.223 28.8964 11.4742 29.1477L13.2943 30.9677C13.5455 31.219 13.5455 31.6263 13.2943 31.8775C13.043 32.1287 12.6357 32.1287 12.3845 31.8775Z" fill="#D35B38" stroke="black"/>
<path d="M14.0221 30.2399L12.202 28.4199C11.9507 28.1686 11.9507 27.7613 12.202 27.5101C12.4532 27.2588 12.8606 27.2588 13.1118 27.5101L14.9318 29.3302C15.1831 29.5814 15.1831 29.9888 14.9318 30.2399C14.6806 30.4912 14.2732 30.4912 14.0221 30.2399Z" fill="#D35B38" stroke="black"/>
<path d="M15.6595 28.6024L13.8394 26.7823C13.5882 26.531 13.5882 26.1237 13.8394 25.8725C14.0907 25.6213 14.498 25.6213 14.7492 25.8725L16.5693 27.6926C16.8205 27.9438 16.8205 28.3512 16.5693 28.6024C16.318 28.8536 15.9108 28.8536 15.6595 28.6024Z" fill="#D35B38" stroke="black"/>
</g>
<defs>
<clipPath id="clip0_1012_82">
<rect width="40" height="40" fill="white"/>
</clipPath>
</defs>
</svg>
