<svg width="245" height="35" viewBox="0 0 245 35" fill="none" xmlns="http://www.w3.org/2000/svg">
<path d="M220.641 34.9636V0H229.114L236.704 14.4799V0H245V34.9636H236.704L228.937 20.3064V34.9636H220.641ZM106.879 0H127.884L125.412 7.76968H119.852V34.9636H111.556V7.76968H104.319L106.879 0ZM91.6102 22.6027H101.671V14.833H91.6102V7.76968H101.671V0H83.3141V34.9636H91.6102V22.6027ZM0 6.18043L4.50108 0H21.005V7.76968H9.5317V27.1939H21.005V34.9636H4.50108L0 28.7831V6.18043ZM171.835 31.2546L177.396 18.0998V34.9636H185.692V0H175.807L170.335 12.8906L164.863 0H154.978V34.9636H163.275V18.0998L168.835 31.2546H171.835ZM130.708 26.3102L127.972 34.9636H148.271L151.448 24.9859L139.71 7.76968H148.536L151.007 0H131.943L129.296 7.94626L141.828 26.3102H130.708ZM44.2165 21.7191L48.5411 16.952V6.18043L44.04 0H25.7709V34.9636H34.067V23.8388H35.8321L41.8336 34.9636H51.3653L44.2165 21.7191ZM39.7154 15.6276H34.067V7.76968H39.7154V15.6276ZM72.6351 0H58.8671L54.366 6.18043V34.9636H62.6621V24.721H68.8401V34.9636H77.1362V6.18043L72.6351 0ZM68.8401 16.952H62.6621V7.76968H68.8401V16.952ZM209.786 0H196.018L191.517 6.18043V34.9636H199.813V24.721H205.991V34.9636H214.287V6.18043L209.786 0ZM205.991 16.952H199.813V7.76968H205.991V16.952Z" fill="black"/>
</svg>
