<svg width="106" height="35" viewBox="0 0 106 35" fill="none" xmlns="http://www.w3.org/2000/svg">
<g clip-path="url(#clip0_1012_65)">
<path d="M0.146362 34.9979H105.807V0.0646973H0.146362V34.9979Z" fill="#FF0000"/>
<path d="M92.0865 15.3645H88.3539V9.07178H83.4723V26.1791H88.3539V19.5224H92.0865V26.1791H96.9681V9.07178H92.0865V15.3645Z" fill="white"/>
<path d="M75.0766 12.6951C75.626 12.6951 76.1075 12.9473 76.5171 13.4562C76.9234 13.9694 77.126 14.7953 77.126 15.9377L81.6857 15.6763C81.5384 13.606 80.898 11.9422 79.7681 10.6882C78.638 9.4354 77.0186 8.80652 74.9138 8.80652C72.6575 8.80652 70.9035 9.6317 69.6457 11.2785C68.3844 12.9214 67.7563 15.0859 67.7563 17.7687C67.7563 20.4765 68.4205 22.5985 69.7496 24.1346C71.078 25.6744 72.8211 26.4444 74.9816 26.4444C76.7799 26.4444 78.2918 25.8832 79.5207 24.7627C80.755 23.6418 81.4751 22.0333 81.6857 19.9373L77.2218 19.6504C77.0666 21.5372 76.3426 22.4827 75.0531 22.4827C74.3293 22.4827 73.7681 22.1495 73.3699 21.4775C72.9678 20.8103 72.7696 19.5437 72.7696 17.6829C72.7696 14.3548 73.537 12.6951 75.0766 12.6951Z" fill="white"/>
<path d="M54.5627 26.1789H66.5305V22.0936H59.3525V19.3H65.1579V15.501H59.3525V13.0201H66.5305V9.07178H54.5627V26.1789Z" fill="white"/>
<path d="M49.8752 26.1789V13.1698H53.174V9.07178H41.9501V13.1698H45.2482V26.1789H49.8752Z" fill="white"/>
<path d="M40.5607 9.07178H35.6787V26.1791H40.5607V9.07178Z" fill="white"/>
<path d="M27.7054 9.07178H22.8239V26.1789H33.9759V21.9823H27.7054V9.07178Z" fill="white"/>
<path d="M8.91785 26.1789H20.8857V22.0936H13.708V19.3H19.5129V15.501H13.708V13.0201H20.8857V9.07178H8.91785V26.1789Z" fill="white"/>
</g>
<defs>
<clipPath id="clip0_1012_65">
<rect width="106" height="35" fill="white"/>
</clipPath>
</defs>
</svg>
