<svg width="73" height="35" viewBox="0 0 73 35" fill="none" xmlns="http://www.w3.org/2000/svg">
<g clip-path="url(#clip0_1012_57)">
<path d="M0.183411 27.7053H4.58542L10.2347 13.1526H12.7658L14.3065 9.28423L11.7387 9.32107L13.3528 5.04738C13.4995 4.42107 13.8663 4.20002 14.4533 4.23686H19.1854L20.7261 0.221069L13.2794 0.294754C12.2156 0.478964 10.308 1.36317 9.0608 4.60528C7.85024 7.7737 0.183411 27.7053 0.183411 27.7053Z" fill="#1A171B"/>
<path d="M29.3834 9.32104H24.9447L19.3688 23.7632H17.3512C16.7643 23.7632 16.3608 23.1737 16.5809 22.6579L21.7166 9.32104H17.2779C17.2779 9.32104 12.7658 20.0421 11.702 23.5421C10.895 26.121 13.6829 27.6316 15.1136 27.6684H22.3035L29.3834 9.32104Z" fill="#1A171B"/>
<path d="M42.5161 11.6421C42.8829 10.6842 42.2593 9.32109 41.1221 9.32109C41.1221 9.32109 36.4633 9.35793 36.1698 9.32109C36.1698 9.32109 39.508 0.368461 39.5447 0.257935H35.3628C35.2894 0.257935 35.2161 0.294777 35.1794 0.405303L24.6146 27.7421C25.495 27.7421 33.4553 27.7421 33.4553 27.7421C35.3995 27.779 36.7568 26.8948 37.6005 25.0895C37.6005 25.0158 42.5161 11.6421 42.5161 11.6421ZM37.6739 13.8527L33.9688 23.4685C33.9322 23.6158 33.7121 23.7632 33.6387 23.7632C33.602 23.7632 30.8874 23.7632 30.8874 23.7632C30.7407 23.7632 30.6673 23.5421 30.7407 23.4316L34.5558 13.5579C34.6658 13.3 34.8126 13.1527 35.106 13.1527H37.307C37.6739 13.1527 37.7839 13.5948 37.6739 13.8527Z" fill="#1A171B"/>
<path d="M56.6392 13.4474C57.4095 11.4579 55.9422 9.32104 53.8512 9.32104H53.8146H46.1477L44.6804 13.1526H51.1367C51.9437 13.1526 52.2005 13.6684 52.0171 14.1474L51.5769 15.2895C51.4668 15.5842 51.1733 15.7684 50.8799 15.7684C49.8527 15.7684 47.7618 15.7684 48.1286 15.7684H46.2211H45.5241C44.3869 15.8053 43.3231 16.5421 42.9563 17.6105C42.9563 17.6105 41.3055 21.921 40.6819 23.5053C39.8382 25.6789 42.0392 27.7053 43.5799 27.7053H51.1734C51.1734 27.7053 55.1718 17.4263 56.4558 13.9632C56.4924 13.8526 56.5658 13.6684 56.6392 13.4474ZM47.7251 23.7632H45.5975C45.304 23.7632 45.1206 23.4684 45.2306 23.2105L46.698 19.4526C46.808 19.1947 47.0648 19.0105 47.3216 19.0105L49.3025 19.0474C49.8894 19.0474 49.9261 19.4526 49.8161 19.7842L48.4955 23.2474C48.2754 23.6158 48.0553 23.7632 47.7251 23.7632Z" fill="#1A171B"/>
<path d="M73 9.3211H64.2326C60.7477 9.10005 59.4271 13.1527 59.4271 13.1527L54.9151 24.8685C54.5482 25.8632 55.0251 27.3737 56.0889 27.7053C56.1256 27.7053 61.2246 27.7053 61.2246 27.7053C61.408 27.7053 61.4814 27.9264 61.4447 28.0369L60.601 30.3579C60.4542 30.7264 60.0874 30.9843 59.6839 30.9843L52.604 30.9474L51.0633 34.8527H58.9135H59.4638C61.8849 34.8527 63.7558 33.3422 64.5995 31.0211L72.7065 10.0948C72.7432 9.98426 72.6331 10.2053 73 9.3211ZM66.7271 13.1527C66.8738 13.1527 67.0206 13.3737 66.9839 13.5211L63.1688 23.4685C63.1321 23.5422 63.0588 23.8001 62.8754 23.8001H60.3809C60.0874 23.8001 59.9774 23.4685 60.0507 23.2843L63.8291 13.4474C63.9025 13.2264 64.0859 13.1527 64.4161 13.1527C64.8563 13.1527 65.9568 13.1527 66.7271 13.1527Z" fill="#1A171B"/>
</g>
<defs>
<clipPath id="clip0_1012_57">
<rect width="73" height="35" fill="white"/>
</clipPath>
</defs>
</svg>
