<svg width="145" height="36" viewBox="0 0 145 36" fill="none" xmlns="http://www.w3.org/2000/svg">
<path fill-rule="evenodd" clip-rule="evenodd" d="M44.9899 26.634C35.9164 26.634 31.8555 23.129 31.8555 17.937C31.8555 12.9057 35.9156 9.36597 44.9899 9.36597C54.0279 9.36597 58.0888 12.8879 58.0888 17.937C58.0888 23.1298 54.0457 26.634 44.9899 26.634ZM104.404 25.9965L88.3047 25.9836L88.3111 23.8724C88.3111 23.8724 89.9432 23.6801 90.6074 23.5928C91.2699 23.5047 91.5309 22.9408 91.5277 22.3162C91.5261 21.6916 91.5358 14.4845 91.5358 13.7533C91.5341 13.0221 91.1996 12.5995 90.4846 12.4969C89.7679 12.3943 88.2877 12.2456 88.2877 12.2456V9.9873H104.404C111.717 9.9873 114.88 13.5448 114.88 17.7859C114.88 22.4931 111.717 25.9965 104.404 25.9965ZM58.8055 26.0539V23.8586C58.8055 23.8586 60.7301 23.6453 61.0315 23.5936C61.7578 23.4659 62.0196 22.9844 62.0188 22.2257V13.8397C62.0188 13.0229 61.6593 12.5696 60.8796 12.4823C60.6283 12.4549 58.8047 12.244 58.8047 12.244V9.98407C58.8047 9.98407 69.9806 9.97518 70.1511 9.97599C70.7587 9.97841 71.1748 10.2693 71.4956 10.6797C71.5594 10.7621 79.9688 21.8758 79.9688 21.8758C79.9688 21.8758 79.972 14.6889 79.9688 13.931C79.9672 13.1731 79.7022 12.61 78.9322 12.5154C78.6922 12.4856 76.7563 12.2585 76.7563 12.2585V9.98407H87.041V12.2391C87.041 12.2391 85.2376 12.4338 84.8619 12.4928C83.978 12.6302 83.8317 13.2289 83.8269 13.8656C83.8236 14.5039 83.8269 26.0547 83.8269 26.0547L75.7617 26.0531C75.2268 26.0531 74.6951 25.8099 74.4059 25.439C74.2152 25.1942 65.8769 14.1621 65.8769 14.1621C65.8769 14.1621 65.8729 21.6011 65.8769 22.338C65.8809 23.0749 66.2397 23.5298 66.8933 23.6081C67.5462 23.6873 69.091 23.8594 69.091 23.8594V26.0547L58.8055 26.0539ZM2.00566 26.0507L2 23.9063C2 23.9063 3.31538 23.752 4.12901 23.6526C4.94265 23.5516 5.21978 23.0296 5.22059 22.111V13.9553C5.2222 13.136 5.01779 12.5647 4.15325 12.4338C3.85188 12.3878 2.00727 12.1834 2.00727 12.1834L2.00646 9.98003H14.863L14.8508 12.1704C14.8508 12.1704 12.9335 12.387 12.6798 12.4233C12.0229 12.5146 11.6537 12.9396 11.6488 13.8599V16.4075H21.5587V13.9165C21.5595 13.119 21.3227 12.5195 20.577 12.4201C19.8312 12.3207 18.3389 12.1511 18.3389 12.1511L18.3437 9.97922H31.2002L31.1897 12.1713C31.1897 12.1713 29.6546 12.3514 28.9759 12.4355C28.298 12.5195 27.9837 13.0423 27.9853 13.9027C27.9861 14.0538 27.9812 21.3466 27.9853 22.2685C27.9901 23.192 28.5048 23.5354 28.9282 23.5912C29.3516 23.6469 31.2051 23.853 31.2051 23.853L31.2002 26.0498H18.3445L18.3558 23.8465C18.3558 23.8465 20.3136 23.6283 20.5632 23.5799C21.4407 23.4029 21.5619 22.8066 21.5587 22.0762C21.5554 21.3458 21.5587 19.6208 21.5587 19.6208H11.6488C11.6488 19.6208 11.6416 21.1123 11.6488 22.195C11.6561 23.2777 12.1651 23.5839 12.6572 23.6534C13.2793 23.7342 14.8613 23.9087 14.8613 23.9087L14.863 26.0498L2.00566 26.0507ZM107.494 18.0008C107.494 13.9585 105.86 13.0584 101.942 13.0584H97.8283V22.8907H101.942C105.86 22.8915 107.494 22.0803 107.494 18.0008ZM50.7039 17.9911C50.7039 13.8228 48.6202 12.4524 44.9722 12.4524C41.3241 12.4524 39.2404 13.8228 39.2404 17.9911C39.2404 22.2144 41.325 23.5589 44.9722 23.5589C48.6194 23.5589 50.7039 22.2144 50.7039 17.9911ZM123.9 26.0571H113.614V23.8635L115.8 23.5734C116.567 23.474 116.873 22.8632 116.96 22.7258C117.048 22.5885 121.977 14.6041 122.406 13.889C122.835 13.174 122.383 12.6278 121.82 12.5276C121.428 12.4573 118.974 12.2052 118.974 12.2052L118.972 9.98326H131.522C132.309 10.0051 132.793 10.8882 132.793 10.8882L140.003 21.9179C140.585 22.8082 141.03 23.4595 141.745 23.5653C142.458 23.6695 143.99 23.8481 143.99 23.8481L144 26.0539H130.104L130.117 23.8748C130.117 23.8748 131.032 23.7536 131.868 23.6445C132.706 23.5354 133.41 23.1726 132.716 22.153C132.022 21.1349 132.039 21.1446 132.039 21.1446L122.189 21.1664C122.189 21.1664 121.882 21.627 121.404 22.3671C120.927 23.1056 121.431 23.5726 122.138 23.6599L123.901 23.8788V26.0571H123.9ZM123.982 18.2626L130.186 18.2941L127.049 13.3331L123.982 18.2626Z" fill="#CC2229"/>
</svg>
