<svg width="166" height="35" viewBox="0 0 166 35" fill="none" xmlns="http://www.w3.org/2000/svg">
<path d="M69.6647 0.497234H80.0673V34.6409H69.6647V0.497234ZM120.737 14.6961C120.876 15.6077 120.931 16.547 120.931 17.4862C120.931 27.1547 113.101 35 103.418 35C93.7347 35 85.8773 27.1823 85.8773 17.5138C85.8773 7.8453 93.707 0 103.39 0C107.07 0 110.639 1.13259 113.627 3.25967L108.038 10.4696C104.165 7.92818 98.9637 9.00553 96.4183 12.8729C93.873 16.7403 94.952 21.9337 98.8253 24.4751C102.699 27.0166 107.872 25.9392 110.418 22.0994C110.584 21.8508 110.75 21.5746 110.888 21.2983H104.165V14.6961H120.737ZM0 24.4751C0 24.4751 4.09467 25.6077 15.5487 11.3536C25.6747 -1.21547 34.1683 0.359113 34.9707 0.359113V10.9116C34.9707 10.9116 28.3307 9.94475 19.588 22.6243C11.8137 33.895 3.735 34.6961 0.0276662 34.6961L0 24.4751ZM39.674 0.497234V10.884H46.563V34.6409H56.9933V10.9116H63.8823V0.52486H39.674V0.497234ZM154.989 14.8619C148.819 6.18784 145.554 0.52486 139.91 0.52486H126.575V34.6409H136.922V27.6519H152.609L152.886 28.0387C155.846 32.3481 160.771 34.8619 166 34.6961V24.4751C166 24.4751 160.328 22.4033 154.989 14.8619ZM136.895 18.7293V10.9116C138.665 10.8287 140.325 11.6851 141.321 13.1215L145.693 18.7017L136.895 18.7293Z" fill="black"/>
</svg>
