<svg width="163" height="35" viewBox="0 0 163 35" fill="none" xmlns="http://www.w3.org/2000/svg">
<path fill-rule="evenodd" clip-rule="evenodd" d="M41.0614 1.97413H20.6469C17.8885 1.97413 14.6652 1.85838 12.8643 3.33991C10.8318 4.99458 10.454 6.82427 10.1929 7.63725C9.93177 8.3919 7.08539 16.3199 7.08539 16.3199C7.08539 16.3199 6.12703 18.7589 7.34744 20.3858C8.56692 22.0117 10.5994 22.5636 11.9059 22.5636H24.2183C24.2183 22.5636 24.9442 22.5062 25.0313 22.7377C25.147 22.9988 24.7702 24.0442 24.3924 24.9729C24.0442 25.8739 23.7248 26.948 23.1146 26.948H2.90379L0 34.9927H25.4091C25.4091 34.9927 27.4999 35.1964 29.736 33.4537C31.9722 31.7111 33.1917 26.9489 33.1917 26.9489L35.1658 21.4025C35.1658 21.4025 36.1242 18.9635 35.2825 17.4246C34.4399 15.8856 33.1917 14.6662 31.3037 14.6662H18.12C18.12 14.6662 17.3357 14.6949 17.4237 14.2023C17.5394 13.6791 18.0913 12.3142 18.2366 11.9077C18.4107 11.5022 18.8755 9.99196 19.7469 9.99196H38.2733L41.0614 1.97413ZM42.3679 34.9927H52.3284L61.3018 9.9901H71.7558L74.8337 1.97413H43.8485L41.0614 9.9901H51.0793L42.3679 34.9927ZM65.9186 34.9927H75.8494L87.6692 1.97413H77.8828L65.9186 34.9927ZM94.8417 1.97413H104.336L100.388 13.6485H112.526L116.911 1.97413H126.262L114.589 34.9927H104.918L109.593 21.4015H97.4834L92.5175 34.9927H82.9941L94.8417 1.97413ZM133.288 1.97413H143.221L134.596 26.948H155.649L153.006 34.9927H121.441L133.288 1.97413ZM157.217 11.0642C157.941 11.0645 158.659 10.9219 159.328 10.6447C159.998 10.3675 160.606 9.96106 161.119 9.44864C161.631 8.93622 162.038 8.32785 162.315 7.6583C162.592 6.98874 162.735 6.27113 162.734 5.54646C162.734 2.46859 160.266 0 157.217 0C154.139 0 151.699 2.46859 151.699 5.54646C151.696 6.27181 151.837 6.99053 152.113 7.66119C152.39 8.33185 152.796 8.94119 153.309 9.4541C153.822 9.96701 154.431 10.3733 155.102 10.6497C155.773 10.926 156.491 11.0669 157.217 11.0642ZM157.217 9.75769C154.807 9.75769 153.006 7.98634 153.006 5.54646C153.006 3.07787 154.807 1.30744 157.217 1.30744C159.569 1.30744 161.427 3.07879 161.427 5.54646C161.427 7.98542 159.569 9.75769 157.217 9.75769ZM158.467 5.92424C159.483 5.8372 160.034 5.43071 160.034 4.35568C160.034 2.84637 159.133 2.61396 157.797 2.61396H155.01V8.3345H156.287V5.92424H157.188L158.467 8.3345H159.859L158.467 5.92424ZM156.287 5.05292V3.60103H157.537C158.089 3.60103 158.843 3.60103 158.843 4.1816C158.843 4.90755 158.467 5.05292 157.826 5.05292H156.287Z" fill="#E0922F"/>
</svg>
