<svg width="110" height="37" viewBox="0 0 110 37" fill="none" xmlns="http://www.w3.org/2000/svg">
<rect width="110" height="37" fill="black"/>
<path d="M104.936 30.9368H105.228L105.366 31.6411L105.503 30.9368H105.795V31.9331H105.606V31.143L105.434 31.9331H105.28L105.108 31.143V31.9331H104.919V30.9368H104.936ZM106.448 31.2632C106.448 31.1258 106.414 31.0571 106.328 31.0571C106.225 31.0571 106.207 31.1601 106.207 31.435C106.207 31.7442 106.242 31.7957 106.328 31.7957C106.396 31.7957 106.448 31.7614 106.448 31.538H106.654C106.654 31.7614 106.602 31.9331 106.345 31.9331C106.036 31.9331 106.001 31.7098 106.001 31.4178C106.001 31.1086 106.036 30.9025 106.345 30.9025C106.637 30.9025 106.654 31.1086 106.654 31.2632H106.448ZM102.978 31.9331V31.1258H103.184V30.9368H102.531V31.1258H102.755V31.9331H102.978ZM104.283 31.9331V30.9368H103.991L103.871 31.4522L103.837 31.6239L103.802 31.4522L103.682 30.9368H103.39V31.9331H103.579V31.2288L103.631 31.4522L103.751 31.9331H103.906L104.026 31.4522L104.077 31.2288V31.9331H104.283ZM104.747 31.435C104.747 31.5037 104.679 31.5724 104.61 31.5724C104.541 31.5724 104.472 31.5037 104.472 31.435C104.472 31.3663 104.541 31.2976 104.61 31.2976C104.696 31.2976 104.747 31.3663 104.747 31.435Z" fill="#FFDF00"/>
<path fill-rule="evenodd" clip-rule="evenodd" d="M13.3092 27.0889C12.0724 27.0889 10.8184 27.1061 9.58158 27.1061C8.946 27.1061 8.32759 27.0717 7.70919 26.9515L7.53741 26.9171L7.36563 26.8828L7.21103 26.8484L7.05643 26.8141L6.90183 26.7797L6.74723 26.7454L6.59263 26.6938L6.43802 26.6423L6.28342 26.5908L6.12882 26.5392L5.97422 26.4705L5.81962 26.4018L5.66502 26.3159L5.52759 26.23L5.37299 26.1269L5.21839 26.0067L5.08097 25.8865L4.96072 25.7662L4.84048 25.646L4.72023 25.5085L4.61717 25.3711L4.5141 25.2337L4.42821 25.0963L4.34232 24.9589L4.25643 24.8214L4.18772 24.684L4.11901 24.5466L4.05029 24.392L3.99876 24.2374L3.94723 24.1L3.89569 23.9454L3.86134 23.7908L3.82698 23.6362L3.79263 23.4816L3.75827 23.327L3.72391 23.1723L3.70674 23.0177L3.68956 22.8631L3.67238 22.7085L3.6552 22.5539L3.63802 22.3993L3.62085 22.2276L3.60367 22.0558V21.884V21.7122V21.5404V21.3687V10.7871V10.6153V10.4435V10.2717V10.1L3.62085 9.92818L3.63802 9.7564L3.6552 9.58462L3.67238 9.43002L3.68956 9.27541L3.70674 9.12081L3.72391 8.96621L3.75827 8.81161L3.79263 8.65701L3.82698 8.50241L3.86134 8.34781L3.89569 8.19321L3.94723 8.03861L3.99876 7.88401L4.05029 7.7294L4.11901 7.5748L4.18772 7.4202L4.25643 7.28278L4.34232 7.12817L4.42821 6.99075L4.53128 6.85333L4.63434 6.7159L4.75459 6.57848L4.87483 6.44106L5.01226 6.30364L5.14968 6.18339L5.30428 6.06315L5.45888 5.96008L5.61348 5.85701L5.76809 5.77112L5.92269 5.70241L6.07729 5.6337L6.23189 5.58216L6.38649 5.53063L6.54109 5.47909L6.69569 5.42756L6.85029 5.39321L7.00489 5.35885L7.1595 5.32449L7.3141 5.29014L7.4687 5.25578L7.6233 5.22143L7.79508 5.20425L7.96686 5.18707L8.13864 5.16989L8.31042 5.15272L8.4822 5.13554L8.67115 5.11836L8.86011 5.10118L9.04907 5.084L9.23802 5.06683L9.44416 5.04965L9.65029 5.03247H9.85643H10.0626H10.2859H10.5092H10.7325H10.9558H11.1963H11.4368H11.6773H11.9006H12.1239H12.3472H12.5705L12.7767 5.04965L12.9828 5.06683L13.1889 5.084L13.3951 5.10118L13.584 5.11836L13.773 5.13554L13.962 5.15272L14.1509 5.16989L14.3227 5.18707L14.4945 5.20425L14.6662 5.22143L14.838 5.25578L15.0098 5.29014L15.1644 5.32449L15.319 5.35885L15.4736 5.39321L15.6282 5.42756L15.7828 5.47909L15.9374 5.53063L16.0061 5.61652L16.1607 5.66805L16.3153 5.73676L16.4699 5.80548L16.5043 5.82265V5.16989H31.638V8.2791L32.1534 5.16989H41.481L42.0135 8.4337V5.16989H66.5779H66.8012H67.0245H67.2478H67.4712H67.6773H67.8834L68.0896 5.18707L68.2957 5.20425L68.4846 5.22143L68.6736 5.23861L68.8626 5.25578L69.0515 5.27296L69.2405 5.29014L69.4123 5.30732L69.584 5.32449L69.7558 5.34167L69.9276 5.35885L70.0994 5.39321L70.254 5.42756L70.4086 5.46192L70.5632 5.49627L70.7178 5.53063L70.8724 5.56498L71.027 5.59934L71.1816 5.65087L71.3362 5.70241L71.4908 5.75394L71.6454 5.82265L71.8 5.89137L71.9546 5.96008V5.16989H80.8699V5.80548L80.9902 5.75394L81.1448 5.68523L81.2994 5.6337L81.454 5.58216L81.6086 5.53063L81.7632 5.47909L81.9178 5.44474L82.0724 5.41038L82.227 5.37603L82.3816 5.34167L82.5362 5.30732L82.6908 5.27296L82.8626 5.25578L83.0343 5.23861L83.2061 5.22143L83.3779 5.20425L83.5497 5.18707L83.7386 5.16989L83.9276 5.15272L84.1166 5.13554L84.3055 5.11836L84.4945 5.10118L84.7006 5.084H84.9067H85.1129H85.3362H85.5595H85.7828H86.0061H86.2466H86.4871H86.7276H86.9509H87.1742H87.3975H87.6208L87.827 5.10118L88.0331 5.11836L88.2393 5.13554L88.4454 5.15272L88.6343 5.16989L88.8233 5.18707L89.0123 5.20425L89.2012 5.22143L89.373 5.23861L89.5448 5.25578L89.7166 5.27296L89.8883 5.30732L90.0601 5.34167L90.2147 5.37603L90.3693 5.41038L90.5239 5.44474L90.6785 5.47909L90.8331 5.53063L90.9877 5.58216L91.1423 5.6337L91.2969 5.68523L91.4515 5.75394L91.6061 5.82265L91.6577 5.85701V5.20425H106.791V27.0546L13.3092 27.0889ZM12.8282 26.0582H12.4846H12.3644H12.0208H11.9006H11.6773H11.557H11.4368H11.0932H10.973H10.6294H10.5092H10.1656H10.0454H9.8049H9.68465H9.5644H9.46134H9.35827H9.2552H9.15213H9.04907H8.946H8.84293H8.73986L8.6368 26.0411L8.53373 26.0239L8.43066 26.0067L8.32759 25.9895L8.22453 25.9723L8.12146 25.9552L8.01839 25.938L7.89815 25.9208L7.72637 25.8865L7.57177 25.8521L7.43434 25.8177L7.29692 25.7834L7.1595 25.749L7.02207 25.7147H6.90183L6.78158 25.6803L6.66134 25.6288L6.54109 25.5773L6.42085 25.5257L6.3006 25.4742L6.18036 25.4227L6.07729 25.3539L5.97422 25.2852L5.87115 25.1993L5.76809 25.1135L5.6822 25.0276L5.59631 24.9417L5.51042 24.8386L5.44171 24.7355L5.37299 24.6325L5.30428 24.5294L5.23557 24.4263L5.18404 24.3233L5.1325 24.2202L5.08097 24.1L5.01226 23.9969L4.96072 23.8766L4.92637 23.7564L4.89201 23.6362L4.85766 23.5159L4.8233 23.3957L4.78894 23.2754L4.75459 23.138L4.73741 23.0006L4.72023 22.8631L4.70306 22.7257L4.68588 22.5883L4.6687 22.4509L4.65152 22.3135L4.63434 22.1588L4.61717 22.0042V21.8496V21.695V21.5404V21.3858V10.8043V10.6496V10.495V10.3404V10.1858L4.63434 10.0312L4.65152 9.87664L4.6687 9.72204L4.68588 9.58462L4.70306 9.44719L4.72023 9.30977L4.73741 9.17235L4.75459 9.03492L4.78894 8.8975L4.8233 8.76007L4.85766 8.63983L4.89201 8.51959L4.92637 8.39934L4.96072 8.2791L5.01226 8.15885L5.06379 8.03861L5.11532 7.91836L5.16686 7.81529L5.23557 7.71223L5.30428 7.60916L5.37299 7.50609L5.44171 7.40302L5.52759 7.29995L5.61348 7.21406L5.69937 7.12817L5.80244 7.04228L5.90551 6.95639L6.00858 6.88768L6.11164 6.81897L6.21471 6.76744L6.31778 6.7159L6.43802 6.66437L6.55827 6.61284L6.67852 6.57848L6.79876 6.54413L6.91901 6.50977L7.03925 6.47541L7.17667 6.44106L7.3141 6.4067L7.45152 6.37235L7.58894 6.33799L7.72637 6.32081L7.88097 6.30364L8.03557 6.28646L8.19017 6.26928L8.34477 6.2521L8.51655 6.23492L8.68833 6.21775L8.86011 6.20057L9.04907 6.18339L9.23802 6.16621L9.42698 6.14904L9.61594 6.13186H9.82207H10.0282H10.2343H10.4577H10.681H10.9043H11.1276H11.3681H11.5914H11.8147H12.038H12.2442H12.4503H12.6564L12.8626 6.14904L13.0515 6.16621L13.2405 6.18339L13.4294 6.20057L13.6012 6.21775L13.773 6.23492L13.9448 6.2521L14.1166 6.26928L14.2712 6.28646L14.4258 6.30364L14.5804 6.32081L14.735 6.35517L14.8724 6.38952L15.0098 6.42388L15.1472 6.45824L15.2846 6.49259L15.4049 6.52695L15.5251 6.5613L15.6454 6.59566L15.7656 6.64719L15.8859 6.69873L16.0061 6.75026L17.5178 7.54045V6.21775H30.6073V20.9736L33.0294 6.21775H40.6049L43.0442 21.0079V6.21775H66.5779H66.8012H67.0245H67.2478H67.454H67.6601H67.8662L68.0724 6.23492L68.2613 6.2521L68.4503 6.26928L68.6393 6.28646L68.811 6.30364L68.9828 6.32081L69.1546 6.33799L69.3264 6.35517L69.481 6.37235L69.6356 6.38952L69.7902 6.4067L69.9448 6.42388L70.0822 6.45824L70.2196 6.49259L70.357 6.52695L70.4945 6.5613L70.6319 6.59566L70.7521 6.63001L70.8724 6.66437L70.9926 6.69873L71.1129 6.75026L71.2331 6.80179L71.3534 6.85333L71.4564 6.90486L72.9681 7.76376V6.23492H79.8221V7.47173L81.4024 6.7159L81.5227 6.66437L81.6429 6.61284L81.7632 6.57848L81.8834 6.54413L82.0037 6.50977L82.1239 6.47541L82.2442 6.44106L82.3816 6.4067L82.519 6.37235L82.6564 6.33799L82.7939 6.32081L82.9485 6.30364L83.1031 6.28646L83.2577 6.26928L83.4123 6.2521L83.584 6.23492L83.7558 6.21775L83.9276 6.20057L84.0994 6.18339L84.2883 6.16621L84.4773 6.14904L84.6663 6.13186H84.8724H85.0785H85.2847H85.4908H85.7141H85.9374H86.1607H86.4012H86.6245H86.8478H87.0712H87.2773H87.4834H87.6896L87.8785 6.14904L88.0675 6.16621L88.2564 6.18339L88.4454 6.20057L88.6172 6.21775L88.7889 6.23492L88.9607 6.2521L89.1325 6.26928L89.2871 6.28646L89.4417 6.30364L89.5963 6.32081L89.7509 6.35517L89.8883 6.38952L90.0258 6.42388L90.1632 6.45824L90.3006 6.49259L90.4209 6.52695L90.5411 6.5613L90.6613 6.59566L90.7816 6.64719L90.9018 6.69873L91.0221 6.75026L92.5681 7.55762V6.21775H105.64V26.0067L13.3092 26.0582H12.9485H12.8282Z" fill="#FFDF00"/>
<path d="M5.66504 10.8043C5.66504 9.1552 5.97424 8.1417 6.57546 7.74661C7.17669 7.35152 8.70553 7.14539 11.1276 7.14539C13.6012 7.14539 15.1472 7.35152 15.7485 7.78097C16.3497 8.21042 16.6417 9.20674 16.6417 10.8043V13.2607H11.8491V10.9073C11.8491 10.5638 11.7976 10.3405 11.6773 10.2202C11.5742 10.1 11.3681 10.0313 11.0589 10.0313C10.8356 10.0313 10.681 10.0828 10.5779 10.1859C10.492 10.2889 10.4405 10.5294 10.4405 10.9073V21.2656C10.4405 21.592 10.492 21.8153 10.5951 21.9528C10.6982 22.0902 10.8871 22.1589 11.1276 22.1589C11.3509 22.1589 11.5227 22.1073 11.6429 22.0043C11.7632 21.9012 11.8319 21.7638 11.8319 21.5748V21.2656V17.4178H16.6245V21.3687C16.6245 23.0006 16.3153 24.0141 15.6969 24.4435C15.0785 24.873 13.5669 25.0791 11.1448 25.0791C8.68835 25.0791 7.15951 24.8558 6.55829 24.4264C5.95706 23.9969 5.64786 22.9834 5.64786 21.3687V10.8043H5.66504Z" fill="#FFDF00"/>
<path d="M18.5656 24.9588V7.24841H23.3411V13.776H24.7497V7.24841H29.5595V24.9588H24.7497V16.6619H23.3411V24.9588H18.5656Z" fill="#FFDF00"/>
<path d="M31.0024 24.9588L33.9055 7.24841H39.7116L42.6319 24.9588H38.1141L37.7534 21.4717H35.8294L35.4687 24.9588H31.0024ZM36.0699 18.5858H37.53L36.8086 11.7662L36.0699 18.5858Z" fill="#FFDF00"/>
<path d="M48.3865 14.7552V24.9588H44.0577V7.24841H49.8982L51.5644 16.2153L53.2135 7.24841H59.0368V24.9588H54.708V14.7552L52.9043 24.9588H50.1902L48.3865 14.7552Z" fill="#FFDF00"/>
<path d="M61.0981 24.9588V7.24841H66.5607C68.9313 7.24841 70.4601 7.45455 71.1129 7.884C71.7656 8.31345 72.092 9.30976 72.092 10.9073V15.3392C72.092 16.9539 71.7656 17.9674 71.1129 18.3969C70.4601 18.8263 68.9485 19.0325 66.5951 19.0325H65.908V24.9588H61.0981ZM65.8908 10.0999V16.1637C65.9423 16.1637 66.0282 16.1638 66.1141 16.1809C66.2172 16.1809 66.2859 16.1981 66.3374 16.1981C66.6981 16.1981 66.9558 16.1466 67.0761 16.0435C67.2135 15.9404 67.265 15.7515 67.265 15.4938V15.0128V11.0619C67.265 10.6153 67.1963 10.3576 67.0761 10.2545C66.9558 10.1515 66.6981 10.0999 66.3031 10.0999H65.8908Z" fill="#FFDF00"/>
<path d="M78.7571 7.24841H73.9988V24.9588H78.7571V7.24841Z" fill="#FFDF00"/>
<path d="M80.6982 10.8043C80.6982 9.1552 81.0074 8.1417 81.6258 7.74661C82.2442 7.35152 83.7558 7.14539 86.1608 7.14539C88.6172 7.14539 90.146 7.35152 90.7644 7.78097C91.3657 8.21042 91.6749 9.20674 91.6749 10.8043V21.3687C91.6749 23.0006 91.3657 24.0141 90.7473 24.4435C90.1289 24.873 88.6172 25.0791 86.1951 25.0791C83.7387 25.0791 82.2098 24.8558 81.6086 24.4264C81.0074 23.9969 80.6982 22.9834 80.6982 21.3687V10.8043ZM85.4908 10.9073V21.2656C85.4908 21.592 85.5424 21.8325 85.6454 21.9699C85.7485 22.1074 85.9203 22.1589 86.1779 22.1589C86.4012 22.1589 86.573 22.1074 86.6933 22.0215C86.8135 21.9184 86.8651 21.7982 86.8651 21.6264V21.2828V10.9245C86.8651 10.581 86.8135 10.3577 86.6933 10.2374C86.5902 10.1172 86.3841 10.0485 86.0749 10.0485C85.8687 10.0485 85.7313 10.1 85.6111 10.1859C85.508 10.2889 85.4565 10.4092 85.4565 10.581V10.9073H85.4908Z" fill="#FFDF00"/>
<path d="M93.5988 24.9588V7.24841H98.0478L100.436 16.3183V7.24841H104.575V24.9588H100.126L97.7215 16.2668V24.9588H93.5988Z" fill="#FFDF00"/>
<path d="M9.40981 30.2326C9.15214 30.2841 8.89447 30.3184 8.65398 30.3528C8.41349 30.3872 8.173 30.3872 7.94969 30.3872C7.45153 30.3872 7.07361 30.3184 6.79877 30.181C6.52392 30.0436 6.35214 29.8375 6.24907 29.5454C6.23189 29.4767 6.21472 29.4252 6.19754 29.3393C6.18036 29.2706 6.18036 29.1847 6.16318 29.0988C6.146 28.9099 6.146 28.7381 6.16318 28.5835C6.18036 28.4289 6.21472 28.2915 6.26625 28.1884C6.33496 28.051 6.40367 27.9307 6.50674 27.8448C6.59263 27.7589 6.71288 27.7074 6.8503 27.673C6.97054 27.6387 7.10797 27.6215 7.26257 27.6043C7.41717 27.5872 7.57177 27.5872 7.76073 27.5872C8.00122 27.5872 8.25889 27.6043 8.53373 27.6215C8.80858 27.6559 9.08343 27.6902 9.39263 27.7418V28.5491C9.16932 28.5319 8.96318 28.5148 8.7914 28.4976C8.61962 28.4804 8.46502 28.4804 8.34478 28.4804C8.13864 28.4804 7.98404 28.4976 7.8638 28.5148C7.74355 28.5491 7.65766 28.5835 7.60613 28.6522C7.53742 28.7209 7.50306 28.824 7.48588 28.9614C7.4687 29.0988 7.4687 29.2362 7.52024 29.3565C7.55459 29.4767 7.62331 29.5626 7.70919 29.6142C7.79508 29.6657 7.91533 29.7 8.06993 29.7C8.08711 29.7 8.10429 29.7 8.12146 29.7C8.13864 29.7 8.13864 29.7 8.15582 29.7V29.0129H9.42699L9.40981 30.2326Z" fill="#FFDF00"/>
<path d="M10.973 30.3012V27.6558H12.2613V29.3736H13.4981V30.3012H10.973Z" fill="#FFDF00"/>
<path d="M14.9068 29.511C14.8896 29.4423 14.8724 29.3908 14.8552 29.3221C14.838 29.2533 14.838 29.1846 14.8209 29.1159C14.8037 28.9098 14.8037 28.738 14.8209 28.5662C14.838 28.3945 14.8724 28.2742 14.9239 28.1711C14.9926 28.0337 15.0785 27.9135 15.1644 27.8276C15.2675 27.7417 15.3706 27.6902 15.508 27.6386C15.6282 27.6043 15.7657 27.5871 15.9203 27.5699C16.0749 27.5527 16.2466 27.5527 16.4356 27.5527C16.7276 27.5527 16.9681 27.5699 17.1742 27.6043C17.3804 27.6386 17.5693 27.6902 17.7239 27.7589C17.8614 27.8276 17.9644 27.9135 18.0675 28.0165C18.1534 28.1368 18.2221 28.2742 18.2908 28.446C18.3252 28.5491 18.3423 28.6521 18.3595 28.7552C18.3767 28.8583 18.3767 28.9785 18.3767 29.0987C18.3767 29.2705 18.3595 29.4423 18.3252 29.5797C18.2908 29.7171 18.2221 29.8546 18.1534 29.9576C18.0503 30.0951 17.8957 30.1981 17.6724 30.2497C17.4491 30.3184 17.1399 30.3356 16.7104 30.3356C16.1436 30.3356 15.7141 30.2668 15.4393 30.1294C15.1816 30.0607 14.9926 29.8374 14.9068 29.511ZM16.5387 28.4975C16.4356 28.4975 16.3669 28.5147 16.2982 28.5491C16.2295 28.5834 16.1951 28.6349 16.1607 28.6865C16.1264 28.7724 16.1092 28.8926 16.092 29.03C16.092 29.1675 16.1092 29.2877 16.1264 29.3908C16.1436 29.4595 16.2123 29.5282 16.281 29.5625C16.3669 29.5969 16.4699 29.6141 16.6074 29.6141C16.6933 29.6141 16.762 29.5969 16.8135 29.5797C16.865 29.5625 16.9166 29.5282 16.9509 29.4767C16.9681 29.4423 17.0025 29.3908 17.0025 29.3392C17.0196 29.2877 17.0196 29.219 17.0196 29.1503C17.0196 29.0644 17.0196 28.9957 17.0196 28.927C17.0196 28.8583 17.0025 28.8067 16.9853 28.7552C16.9509 28.6693 16.8994 28.6006 16.8135 28.5491C16.7963 28.5319 16.6933 28.4975 16.5387 28.4975Z" fill="#FFDF00"/>
<path d="M19.9399 30.3012L19.9227 27.6387H22.3963C22.6712 27.6387 22.8773 27.673 23.0147 27.7589C23.135 27.8276 23.238 27.9651 23.2896 28.154C23.3755 28.4117 23.3583 28.6178 23.238 28.7552C23.1178 28.8927 22.8945 28.9785 22.5853 28.9785C22.8258 28.9957 23.0147 29.0301 23.135 29.0988C23.2552 29.1675 23.3583 29.2878 23.3926 29.4424C23.427 29.5454 23.4442 29.6485 23.427 29.7516C23.427 29.8546 23.3926 29.9405 23.3411 30.0092C23.2724 30.1123 23.1693 30.181 23.0147 30.2325C22.8773 30.2841 22.6368 30.3012 22.3104 30.3012H19.9399ZM21.1939 28.7896H21.7092C21.8466 28.7896 21.9497 28.7724 22.0012 28.7209C22.0528 28.6865 22.0699 28.6178 22.0528 28.5319C22.0356 28.4804 22.0012 28.4289 21.9669 28.4117C21.9153 28.3945 21.8466 28.3773 21.7264 28.3773H21.1939V28.7896ZM21.1939 29.6828H21.7607C21.881 29.6828 21.984 29.6657 22.0356 29.6141C22.0871 29.5626 22.1043 29.4939 22.0871 29.408C22.0699 29.3565 22.0356 29.3049 21.984 29.2877C21.9325 29.2706 21.8638 29.2534 21.7607 29.2534H21.1939V29.6828Z" fill="#FFDF00"/>
<path d="M24.681 30.3012L25.6601 27.6387H27.8073L28.5975 30.3012H27.3435L27.2233 29.9233H26.2098L26.0724 30.3012H24.681ZM26.4159 29.2706H27.0859L26.7939 28.2914L26.4159 29.2706Z" fill="#FFDF00"/>
<path d="M29.9718 30.3012L29.9546 27.6558H31.2429L31.2601 29.3736H32.4797V30.3012H29.9718Z" fill="#FFDF00"/>
<path d="M35.6405 30.3012L35.6233 27.6387H37.9595C38.2344 27.6387 38.4405 27.6902 38.5951 27.7933C38.7497 27.8963 38.8699 28.0681 38.9387 28.2743C38.9902 28.4289 39.0074 28.5835 39.0245 28.7381C39.0417 28.8927 39.0245 29.0301 38.9902 29.1503C38.9387 29.3565 38.8356 29.4939 38.681 29.5798C38.5264 29.6657 38.2859 29.7 37.9595 29.7H36.8945V30.2841H35.6405V30.3012ZM36.9288 29.0644H37.3239C37.5301 29.0644 37.6675 29.0301 37.7362 28.9614C37.8221 28.8927 37.8393 28.7896 37.7877 28.6693C37.7706 28.6006 37.719 28.5491 37.6675 28.5147C37.5988 28.4804 37.5129 28.4632 37.4098 28.4632H36.9117L36.9288 29.0644Z" fill="#FFDF00"/>
<path d="M40.5534 29.511C40.5362 29.4423 40.519 29.3908 40.5018 29.3221C40.4847 29.2533 40.4847 29.1846 40.4675 29.1159C40.4503 28.9098 40.4503 28.738 40.4675 28.5662C40.4847 28.3945 40.519 28.2742 40.5705 28.1711C40.6393 28.0337 40.7251 27.9135 40.811 27.8276C40.9141 27.7417 41.0172 27.6902 41.1546 27.6386C41.2748 27.6043 41.4123 27.5871 41.5669 27.5699C41.7215 27.5527 41.8932 27.5527 42.0822 27.5527C42.3742 27.5527 42.6147 27.5699 42.8208 27.6043C43.027 27.6386 43.2159 27.6902 43.3705 27.7589C43.508 27.8276 43.611 27.9135 43.7141 28.0165C43.8 28.1368 43.8687 28.2742 43.9374 28.446C43.9718 28.5491 43.9889 28.6521 44.0061 28.7552C44.0233 28.8583 44.0233 28.9785 44.0233 29.0987C44.0233 29.2705 44.0061 29.4423 43.9718 29.5797C43.9374 29.7171 43.8687 29.8546 43.8 29.9576C43.6969 30.0951 43.5423 30.1981 43.319 30.2497C43.0957 30.3184 42.7865 30.3356 42.357 30.3356C41.7902 30.3356 41.3607 30.2668 41.0859 30.1294C40.8454 30.0607 40.6564 29.8374 40.5534 29.511ZM42.2024 28.4975C42.0994 28.4975 42.0307 28.5147 41.962 28.5491C41.8932 28.5834 41.8589 28.6349 41.8245 28.6865C41.7902 28.7724 41.773 28.8926 41.7558 29.03C41.7558 29.1675 41.773 29.2877 41.7902 29.3908C41.8074 29.4595 41.8589 29.5282 41.9448 29.5625C42.0307 29.5969 42.1337 29.6141 42.2712 29.6141C42.357 29.6141 42.4258 29.5969 42.4773 29.5797C42.5288 29.5625 42.5804 29.5282 42.6147 29.4767C42.6319 29.4423 42.6662 29.3908 42.6662 29.3392C42.6834 29.2877 42.6834 29.219 42.6834 29.1503C42.6834 29.0644 42.6834 28.9957 42.6834 28.927C42.6834 28.8583 42.6662 28.8067 42.6491 28.7552C42.6147 28.6693 42.5632 28.6006 42.4773 28.5491C42.4429 28.5319 42.3399 28.4975 42.2024 28.4975Z" fill="#FFDF00"/>
<path d="M46.0331 30.3012L45.2086 27.6387H46.4969L46.8061 28.9785C46.8061 28.9785 46.8061 28.9957 46.8233 29.0129C46.8748 29.2019 46.9092 29.3908 46.9436 29.5454C46.9436 29.5454 46.9436 29.4939 46.9436 29.408C46.9436 29.3221 46.9607 29.1847 46.9607 29.0129L47.0294 27.6387H48.3006L48.5583 28.9442C48.5583 28.9614 48.5583 28.9785 48.5755 28.9957C48.6098 29.2019 48.6442 29.3908 48.6613 29.5282V29.4767C48.6785 29.2706 48.6957 29.0988 48.7129 28.9614L48.8675 27.6387H50.2933L49.6233 30.3012H48.1288L47.8196 28.9442C47.8025 28.8927 47.8025 28.8239 47.7853 28.7381C47.7681 28.6522 47.7509 28.5663 47.7337 28.446C47.7337 28.5663 47.7166 28.7037 47.7166 28.8411C47.7166 28.8755 47.7166 28.9098 47.7166 28.9098L47.6135 30.3012H46.0331Z" fill="#FFDF00"/>
<path d="M51.7706 30.3012L51.7534 27.6558H54.7595V28.4975H53.0246V28.7723H54.7595V29.3392H53.0417V29.614H54.7595V30.3012H51.7706Z" fill="#FFDF00"/>
<path d="M56.3914 30.3012L56.3742 27.6387H58.7791C59.0196 27.6387 59.2086 27.6902 59.3632 27.7933C59.5006 27.8963 59.6209 28.0338 59.6724 28.2399C59.7755 28.5491 59.7583 28.7896 59.6209 28.9614C59.4834 29.116 59.243 29.2019 58.8994 29.2019H58.8307L60.016 30.3012H58.5043L57.9202 29.6828C57.8859 29.6485 57.8344 29.5969 57.8 29.5454C57.7656 29.4939 57.7141 29.4423 57.6626 29.3736V29.4252C57.6626 29.597 57.6798 29.6828 57.6798 29.7V30.2841H56.3914V30.3012ZM57.6626 28.9614H58.0748C58.2638 28.9614 58.3841 28.927 58.4528 28.8755C58.5215 28.8239 58.5387 28.7209 58.5043 28.6006C58.4871 28.5319 58.4528 28.4804 58.3841 28.446C58.3325 28.4117 58.2466 28.3945 58.1607 28.3945H57.6626V28.9614Z" fill="#FFDF00"/>
<path d="M102.325 31.0055H4.10184V31.9503H102.325V31.0055Z" fill="#FFDF00"/>
<path d="M63.9669 30.3012L63.9497 27.6558H66.9558V28.4975H65.2209L65.2381 28.7723H66.9558V29.3392H65.2381V29.614H66.9558V30.3012H63.9669Z" fill="#FFDF00"/>
<path d="M70.1166 30.765L69.7215 30.3356C69.3779 30.3012 69.1202 30.2153 68.9485 30.0951C68.7595 29.9749 68.6393 29.7859 68.5534 29.5282C68.5362 29.4595 68.519 29.3908 68.5018 29.3221C68.4847 29.2534 68.4847 29.1675 68.4675 29.0988C68.4503 28.9098 68.4503 28.7209 68.4675 28.5663C68.4847 28.4117 68.519 28.2742 68.5534 28.1712C68.6221 28.0337 68.6908 27.9307 68.7939 27.8448C68.8969 27.7589 69.0172 27.7074 69.1546 27.6558C69.2748 27.6215 69.4123 27.6043 69.5669 27.5871C69.7215 27.5699 69.8761 27.5699 70.065 27.5699C70.357 27.5699 70.6147 27.5871 70.8208 27.6215C71.027 27.6558 71.2159 27.7074 71.3705 27.7761C71.508 27.8276 71.611 27.9135 71.6969 28.0338C71.7828 28.154 71.8515 28.2914 71.9031 28.4632C71.9374 28.5491 71.9546 28.6522 71.9718 28.7724C71.9889 28.8755 71.9889 28.9957 71.9889 29.116C71.9889 29.2877 71.9718 29.4595 71.9374 29.5969C71.9031 29.7515 71.8343 29.8718 71.7656 29.9749C71.6969 30.0779 71.5939 30.1466 71.4393 30.1982C71.3018 30.2497 71.0957 30.2841 70.8552 30.3012L71.2847 30.7479H70.1166V30.765ZM70.1853 28.4976C70.0822 28.4976 70.0135 28.5147 69.9448 28.5491C69.8761 28.5834 69.8417 28.635 69.8074 28.6865C69.773 28.7724 69.7558 28.8926 69.7386 29.0301C69.7386 29.1675 69.7558 29.2877 69.773 29.3908C69.7902 29.4595 69.8417 29.5282 69.9276 29.5626C70.0135 29.5969 70.1166 29.6141 70.254 29.6141C70.3399 29.6141 70.4086 29.5969 70.4601 29.5798C70.5116 29.5626 70.5632 29.5282 70.5975 29.4767C70.6147 29.4423 70.6491 29.3908 70.6491 29.3393C70.6662 29.2877 70.6662 29.219 70.6662 29.1503C70.6662 29.0644 70.6662 28.9957 70.6662 28.927C70.6662 28.8583 70.6491 28.8068 70.6319 28.7552C70.5975 28.6693 70.546 28.6006 70.4601 28.5491C70.4429 28.5319 70.3227 28.4976 70.1853 28.4976Z" fill="#FFDF00"/>
<path d="M73.535 27.6558H74.8061V29.3048C74.8061 29.3392 74.8061 29.3736 74.8061 29.4079C74.8061 29.4423 74.8061 29.4594 74.8233 29.4766C74.8405 29.5453 74.8749 29.5797 74.9264 29.614C74.9779 29.6484 75.0466 29.6656 75.1325 29.6656C75.2356 29.6656 75.3215 29.6312 75.373 29.5797C75.4245 29.5282 75.4417 29.4423 75.4417 29.322L75.4245 27.6558H76.7129V29.322C76.7129 29.5625 76.6957 29.7343 76.6785 29.8374C76.6442 29.9404 76.6098 30.0263 76.5411 30.0778C76.4209 30.1809 76.2663 30.2496 76.0429 30.3012C75.8368 30.3527 75.5448 30.3699 75.2012 30.3699C74.7031 30.3699 74.308 30.3183 74.0675 30.2153C73.8098 30.1122 73.6552 29.9576 73.5865 29.7343C73.5693 29.6828 73.5522 29.614 73.5522 29.5453C73.5522 29.4766 73.535 29.3907 73.535 29.2705V27.6558Z" fill="#FFDF00"/>
<path d="M78.3963 30.3012L78.3792 27.6558H79.6675L79.6847 30.3012H78.3963Z" fill="#FFDF00"/>
<path d="M81.3509 30.3012L81.3337 27.6387H83.6871C83.962 27.6387 84.1681 27.6902 84.3227 27.7933C84.4773 27.8963 84.5975 28.0681 84.6663 28.2743C84.7178 28.4289 84.735 28.5835 84.7521 28.7381C84.7693 28.8927 84.7521 29.0301 84.7178 29.1503C84.6663 29.3565 84.5632 29.4939 84.4086 29.5798C84.254 29.6657 84.0135 29.7 83.6871 29.7H82.6221V30.2841H81.3509V30.3012ZM82.6221 29.0644H83.0172C83.2233 29.0644 83.3607 29.0301 83.4294 28.9614C83.5153 28.8927 83.5325 28.7896 83.481 28.6693C83.4638 28.6006 83.4123 28.5491 83.3607 28.5147C83.292 28.4804 83.2061 28.4632 83.1031 28.4632H82.6049L82.6221 29.0644Z" fill="#FFDF00"/>
<path d="M87.5178 28.7724C87.5178 28.8755 87.535 28.9614 87.535 29.0473C87.535 29.1331 87.535 29.2019 87.535 29.2706V30.3012H86.3153L86.2982 27.6387H87.9644L88.308 28.6178C88.3252 28.635 88.3251 28.6693 88.3423 28.7037C88.3595 28.7381 88.3595 28.7724 88.3767 28.8239C88.3939 28.8583 88.3939 28.9098 88.411 28.9442C88.4282 28.9785 88.4282 29.0301 88.4454 29.0644C88.4626 29.0301 88.4626 28.9785 88.4798 28.927C88.4969 28.8755 88.5141 28.8068 88.5485 28.7381L88.9264 27.6387H90.6442V30.3012H89.4245V29.2019C89.4245 29.1847 89.4245 29.1503 89.4245 29.0988C89.4245 29.0473 89.4245 28.9442 89.4417 28.7724L89.4074 28.8755C89.3558 29.0301 89.3043 29.1331 89.2871 29.2019L88.8233 30.3012H88.1362L87.7067 29.2534C87.6896 29.219 87.6724 29.1503 87.638 29.0816C87.6209 29.0301 87.5693 28.927 87.5178 28.7724Z" fill="#FFDF00"/>
<path d="M92.3448 30.3012L92.3276 27.6558H95.3338V28.4975H93.5988V28.7723H95.3338V29.3392H93.616V29.614H95.3338V30.3012H92.3448Z" fill="#FFDF00"/>
<path d="M96.9657 30.3012L96.9485 27.6387H98.3743L98.9411 28.7896C98.9583 28.8068 98.9755 28.8583 99.0098 28.9442C99.0442 29.0129 99.0957 29.116 99.1473 29.2534C99.1301 29.1503 99.1301 29.0129 99.1301 28.8411C99.1301 28.8068 99.1301 28.7896 99.1301 28.7724V27.6387H100.384L100.401 30.3012H98.9927L98.4258 29.2877C98.3914 29.2362 98.3571 29.1675 98.3227 29.0988C98.2884 29.0301 98.2368 28.9442 98.2025 28.8583C98.2196 28.9785 98.2196 29.1331 98.2196 29.3049V30.3012H96.9657Z" fill="#FFDF00"/>
<path d="M103.906 28.5318L103.923 30.3012H102.634L102.617 28.5318H101.793V27.6558H104.696V28.5318H103.906Z" fill="#FFDF00"/>
</svg>
