<svg width="179" height="33" viewBox="0 0 179 33" fill="none" xmlns="http://www.w3.org/2000/svg">
<path d="M66.7549 10.7493H62.6752V20.6185C62.6752 23.41 61.5538 24.8256 59.2536 24.8256C58.3623 24.8256 57.7019 24.4696 57.2365 24.0072C56.649 23.416 56.3645 22.4383 56.3645 21.0116V10.7493H52.3078V21.3549C52.3078 23.687 52.841 25.3557 53.9393 26.4578C54.9892 27.5069 56.2677 28.02 58.3891 28.02C59.8694 28.02 61.6856 27.0117 62.7265 25.6841V27.5754H66.7542L66.7549 10.7493ZM122.694 24.6967L122.625 24.6952C121.11 24.6729 119.801 24.1182 119.691 22.8516C119.584 21.5872 120.317 20.681 122.243 20.3497C122.742 20.2499 123.265 20.2022 123.768 20.127C124.531 20.0109 125.437 19.7986 126.213 19.2752V21.853C126.213 23.9082 124.198 24.6967 122.694 24.6967ZM123.832 10.304H123.778C121.367 10.3144 117.297 10.8074 116.825 15.3898H120.905C120.859 13.5759 122.816 13.4403 123.405 13.4403C123.508 13.4403 123.57 13.4433 123.57 13.4433C124.434 13.4433 125.228 13.7181 125.803 14.176C126.159 14.4605 126.395 14.8946 126.422 15.6027C126.467 16.745 125.92 17.2915 122.099 17.6608C119.151 17.946 115.636 18.7458 115.636 22.9826C115.636 24.3341 116.101 25.5106 116.969 26.3825C118.026 27.4392 119.621 28.0207 121.457 28.0207C123.889 28.0207 125.294 27.4116 126.546 26.0125L126.745 27.5754H130.66V26.944C130.155 26.5456 130.268 24.874 130.268 24.874V15.2863C130.268 14.0286 129.85 12.969 129.023 12.1402C127.864 10.9794 126.21 10.304 123.832 10.304ZM91.9304 24.6952C90.7837 24.6952 90.0354 24.3296 89.3198 23.6118C88.3488 22.6394 87.8157 21.057 87.8157 19.1478C87.8157 17.3287 88.401 15.7003 89.4159 14.6816C90.1516 13.9459 90.8656 13.5736 91.9304 13.5736C94.3058 13.5736 95.559 15.0986 95.9246 17.8649C95.9804 18.2856 95.9998 19.8113 95.9767 20.0987C95.7094 23.0645 94.4406 24.6952 91.9304 24.6952ZM91.4308 10.3048C86.5774 10.3048 83.759 13.7308 83.759 19.2551C83.759 22.0705 84.6511 24.5731 86.2051 26.1301C87.4568 27.3855 88.8835 28.02 90.8262 28.02C93.0355 28.02 94.646 27.0088 95.8709 25.5002V32.1384L99.9544 32.128L99.9507 10.7627L96.0824 10.7493V12.8566C95.0392 11.415 93.585 10.3048 91.4308 10.3048ZM49.969 5.12669H45.5467V13.7173H36.2718V5.12669H31.8495V27.5754H36.2718V17.5931H45.5467V27.5754H49.969V5.12669ZM75.6285 10.304H75.4722C72.347 10.3494 68.6299 11.5863 68.6299 15.2081C68.6299 18.6184 70.9881 19.6549 73.8243 20.2663C74.2041 20.3549 74.5905 20.4375 74.9666 20.5165C77.0835 20.9602 78.674 21.381 78.7075 22.7823C78.7425 24.1822 77.5593 24.7295 75.8154 24.7734L75.6695 24.7742C73.9956 24.7742 72.7029 24.0236 72.4565 22.5507H68.3491C68.539 26.7079 72.621 28.0207 75.5578 28.0207C75.6255 28.0207 75.6933 28.0207 75.7596 28.0185C78.7112 27.9574 80.0493 27.259 81.3725 25.935C82.2958 25.0132 82.7657 23.8419 82.7657 22.4577C82.7657 19.1746 80.2749 18.0972 77.4432 17.4263L76.5548 17.2215C74.3523 16.7904 72.5428 16.3488 72.6486 15.077C72.7513 13.8015 74.1333 13.5245 75.2138 13.4932L75.4238 13.491C76.4119 13.491 77.2391 13.7218 77.8408 14.9311H82.071C81.657 11.7225 78.75 10.304 75.6285 10.304ZM116.715 10.7493H112.492L108.88 23.6893L105.139 10.7493H100.733L106.569 27.5754H110.932L116.715 10.7493ZM140.821 10.1395C140.547 10.1395 140.249 10.1558 139.944 10.2005C138.622 10.3964 137.048 11.8975 136.368 13.6898V10.7493H132.524V27.5754H136.604V19.5417C136.604 17.7145 136.719 16.3332 137.561 15.2535C138.185 14.4508 139.281 13.6548 140.382 13.6548L140.444 13.6555C141.559 13.6868 142.209 13.9162 142.209 13.9162V10.2794C142.209 10.2794 141.614 10.1395 140.821 10.1395ZM152.209 10.3048C150.215 10.3048 148.714 11.3614 147.506 13.2691V10.7493H143.661V27.5762H147.719V17.6504C147.719 16.4404 147.977 15.3183 148.734 14.5625C149.381 13.9095 150.307 13.5364 151.424 13.5364H151.528C153.398 13.5714 154.032 14.6481 154.107 17.0562L154.104 27.5762H158.163V16.0741C158.163 14.3123 157.653 12.9072 156.647 11.9012C155.6 10.8543 154.122 10.3048 152.209 10.3048ZM20.0949 10.7754H16.3264V15.3548C16.3264 16.258 16.3637 16.258 13.686 16.258C10.9563 16.258 10.9659 16.258 10.9659 15.3548V10.7754H7.25253V26.037H10.9659V20.5269C10.9659 19.6519 10.957 19.6519 13.686 19.6519C16.3637 19.6519 16.3264 19.6519 16.3264 20.5269V26.037H20.0949V10.7754ZM13.686 28.708C10.4916 28.708 9.42383 28.708 7.84078 28.2702C7.29274 28.0788 6.31133 27.8055 5.60022 26.6841C4.29044 24.4436 4.29044 20.2335 4.29044 18.2089C4.29044 16.1843 4.29044 12.6034 5.60022 10.3904C6.31133 9.24145 7.29274 8.96743 7.84078 8.77681C9.42309 8.36652 10.4916 8.36652 13.686 8.36652C16.8015 8.36652 17.8648 8.36652 19.4791 8.77681C20.0227 8.96743 20.9803 9.24145 21.6333 10.3904C23.057 12.6034 23.057 16.43 23.057 18.4539C23.057 20.4241 23.057 24.4436 21.6333 26.6841C20.9803 27.8055 20.0227 28.0795 19.4791 28.2702C17.8648 28.708 16.8015 28.708 13.686 28.708ZM13.6309 0C12.2392 0 11.3397 0.242745 10.957 0.328376C11.1476 2.1028 11.0933 3.52651 10.957 3.93679C10.6145 4.94277 9.0895 5.54815 7.88396 5.54815C7.44985 5.54815 7.05893 5.46996 6.77746 5.30466C5.60097 4.5928 5.87424 2.43192 5.87424 1.00896C5.87424 1.00896 4.15194 1.43339 3.08714 1.82953C2.22487 2.15567 0.932213 2.78785 0.932213 2.78785C0.658939 4.59355 0.932213 7.24439 2.70813 8.14761C1.36781 9.48866 0.932213 11.0747 0.358857 13.9981C0.116569 15.3557 -0.0035467 16.7323 -4.77886e-05 18.1113V18.2201C0.000696829 18.8612 0.0215457 19.4449 0.0304811 19.9878C0.167491 22.063 0.167491 23.1859 0.659683 25.0735C1.36781 27.2307 1.78852 28.2478 3.22489 29.7482C5.8251 32.4616 9.9056 32.621 12.7016 32.621C13.0464 32.621 13.3725 32.6187 13.6726 32.618C14.0889 32.6195 14.5557 32.6269 15.0591 32.6269C17.8603 32.6269 21.7882 32.3983 24.1769 29.7475C25.5515 28.2255 25.897 27.2307 26.5813 25.0728C27.1837 23.1852 27.1003 22.0623 27.2932 19.987C27.3475 18.4539 27.4309 16.6214 26.9097 13.9981C26.3356 11.0747 25.8978 9.48792 24.5604 8.14761C26.3356 7.24439 26.5813 4.59355 26.3356 2.78785C26.3356 2.78785 24.9774 2.11471 24.0682 1.77591C23.0786 1.41105 21.4747 1.0097 21.4747 1.0097C21.4747 2.43267 21.6356 4.59355 20.5722 5.3054C20.2833 5.47071 19.8842 5.54889 19.4464 5.54889C18.2215 5.54889 16.6883 4.94352 16.3659 3.93754C16.2289 3.52725 16.0926 2.10354 16.3659 0.329121C15.9802 0.242745 14.9169 0 13.6309 0ZM166.511 24.7064H166.444C164.928 24.6826 163.622 24.1249 163.513 22.8583C163.403 21.5984 164.138 20.687 166.064 20.3556C166.566 20.2566 167.087 20.2097 167.587 20.1337C168.348 20.0213 169.256 19.8091 170.035 19.2856V21.8642C170.035 23.9156 168.024 24.7064 166.511 24.7064ZM167.379 10.3115H167.325C164.914 10.3219 160.845 10.8163 160.376 15.3994H164.452C164.406 13.5818 166.362 13.4463 166.949 13.4463C167.053 13.4463 167.115 13.45 167.115 13.45C167.983 13.45 169.05 13.7233 169.628 14.185C169.981 14.4694 170.217 14.9043 170.243 15.6117C170.288 16.7509 169.741 17.2975 165.921 17.6675C162.969 17.9542 159.456 18.7554 159.456 22.9923C159.456 24.3423 159.918 25.5203 160.79 26.3915C161.847 27.4459 163.441 28.0296 165.277 28.0296C167.709 28.0296 169.112 27.4168 170.366 26.0184L170.564 27.5814H174.48V26.9537C173.975 26.5523 174.087 24.8844 174.087 24.8844V15.2974C174.087 14.036 173.67 12.9794 172.843 12.1507C171.681 10.9898 169.763 10.3115 167.379 10.3115ZM176.548 10.3718C176.264 10.372 175.984 10.3162 175.722 10.2078C175.46 10.0993 175.221 9.94027 175.021 9.7397C174.82 9.53913 174.661 9.301 174.553 9.03893C174.445 8.77685 174.389 8.49598 174.389 8.21239C174.389 7.78527 174.516 7.36774 174.753 7.01262C174.991 6.65749 175.328 6.38072 175.723 6.2173C176.117 6.05388 176.551 6.01116 176.97 6.09454C177.389 6.17792 177.774 6.38366 178.076 6.68573C178.378 6.9878 178.584 7.37264 178.667 7.79157C178.75 8.2105 178.707 8.6447 178.544 9.03927C178.38 9.43383 178.103 9.77103 177.748 10.0082C177.393 10.2454 176.975 10.3719 176.548 10.3718ZM176.548 6.32031C176.299 6.32002 176.053 6.36878 175.823 6.4638C175.594 6.55882 175.385 6.69823 175.209 6.87405C175.033 7.04988 174.894 7.25866 174.799 7.48844C174.704 7.71821 174.655 7.96448 174.655 8.21313C174.655 8.46185 174.704 8.70819 174.798 8.93806C174.893 9.16792 175.033 9.37679 175.209 9.55269C175.385 9.7286 175.593 9.86808 175.823 9.96314C176.053 10.0582 176.299 10.107 176.548 10.1067C176.797 10.107 177.043 10.0582 177.273 9.96314C177.503 9.86808 177.712 9.7286 177.887 9.55269C178.063 9.37679 178.203 9.16792 178.298 8.93806C178.393 8.70819 178.441 8.46185 178.441 8.21313C178.441 7.96445 178.393 7.71814 178.298 7.48832C178.203 7.25849 178.063 7.04968 177.887 6.87383C177.711 6.69799 177.503 6.55858 177.273 6.4636C177.043 6.36861 176.797 6.31992 176.548 6.32031ZM177.387 7.70381C177.387 7.92348 177.277 8.1208 177.104 8.231C176.994 8.30025 176.884 8.32408 176.716 8.34567C177.029 8.46258 177.109 8.53183 177.474 9.37101H177.133C176.751 8.53183 176.653 8.38663 176.092 8.38663H175.958V9.37101H175.674V7.10142H176.617C177.387 7.10067 177.387 7.63978 177.387 7.70381ZM175.958 8.14984H176.334C176.704 8.14984 177.057 8.11484 177.057 7.7269C177.057 7.35682 176.761 7.33374 176.38 7.33374H175.958V8.14984Z" fill="#003985"/>
</svg>
