<svg width="155" height="35" viewBox="0 0 155 35" fill="none" xmlns="http://www.w3.org/2000/svg">
<path fill-rule="evenodd" clip-rule="evenodd" d="M17.4098 2.69287C19.0251 2.69287 20.6405 2.87246 22.2558 3.41032L15.974 17.0515H2.69196C2.87154 8.97472 9.51255 2.69287 17.4098 2.69287ZM30.5122 24.2295C27.9998 28.896 23.1537 32.1267 17.4098 32.1267C9.51255 32.1267 3.05112 25.8457 2.69196 17.9494H15.4352L12.5637 24.2304L30.5122 24.2295Z" fill="#C9322D"/>
<path fill-rule="evenodd" clip-rule="evenodd" d="M17.4098 1.43577C19.2047 1.43577 20.9996 1.61536 22.7946 2.33369L23.3324 0.897907C21.5375 0.360041 19.563 0 17.4098 0C7.89721 0 0 7.71762 0 17.4098C0 26.9223 7.89721 34.8187 17.4098 34.8187C24.5886 34.8187 30.8705 30.5113 33.5633 24.2295H31.948C29.4356 29.6143 23.8712 33.3829 17.4098 33.3829C8.61553 33.3829 1.43578 26.2031 1.43578 17.4089C1.43578 8.61553 8.61553 1.43577 17.4098 1.43577ZM33.9216 22.975H14.3586L24.4091 1.43577C30.5122 4.12862 34.8195 10.2309 34.8195 17.4098C34.8195 19.3852 34.6399 21.1801 33.9216 22.975ZM30.5122 0.360041H154.712L154.352 1.79582H31.9471L30.5122 0.360041ZM30.1522 35H145.379L145.739 33.5625H31.7675L30.1522 35Z" fill="#0C0E0F"/>
<path fill-rule="evenodd" clip-rule="evenodd" d="M33.2042 31.9479H146.096L146.993 29.0764H36.0757L33.2042 31.9479ZM33.5624 3.41113H153.995L153.097 6.2818H36.434L33.5624 3.41113Z" fill="#C9322D"/>
<path fill-rule="evenodd" clip-rule="evenodd" d="M94.4055 18.1281C93.6889 18.1281 92.9697 18.666 92.9697 19.2047L92.2532 22.0781H95.4839C96.2005 22.0781 96.9197 21.5384 97.0984 20.821L97.6362 18.1281H94.4055ZM96.9197 28.1794H99.9699L102.843 17.0515L103.56 28.1794H105.355L113.432 16.8719L110.202 28.1794H117.38L123.124 7.53896H117.739C117.021 7.53896 116.124 8.07682 115.585 8.79515L109.482 16.8719L108.047 8.61557C108.047 8.25729 107.509 7.53896 106.97 7.53896H99.2516L98.3537 10.0513H101.047C101.584 10.0513 101.584 10.9493 101.406 11.3075L96.9197 28.1794ZM128.507 24.5896L130.661 17.2311C130.661 16.6932 130.302 16.1545 129.584 16.1545C128.506 16.1545 128.148 16.3341 127.968 17.0524L125.994 24.5904C125.816 25.1283 126.173 25.667 126.892 25.667C127.969 25.6653 128.328 25.3079 128.507 24.5896ZM123.302 28.3581C125.097 28.3581 127.251 28.3581 128.507 26.7437C128.687 27.4602 129.585 28.3581 131.02 28.3581C133.713 28.5386 134.789 27.6416 136.762 26.0253L136.046 25.1274C134.61 25.8458 134.07 25.6653 134.429 24.2295L137.481 13.2812H131.737L131.2 15.2557C130.483 13.4608 128.149 13.1025 126.533 13.1025C125.097 13.1025 123.481 14.1791 122.943 15.7944L120.431 24.2295C119.534 27.4602 121.148 28.1794 123.302 28.3581ZM139.994 28.1794H144.122C146.454 28.1794 147.352 26.9224 147.711 25.4866L148.249 23.5129H145.556L145.378 24.4109C145.197 25.1274 144.84 25.4875 143.762 25.4875C143.045 25.4875 142.506 24.9496 142.685 24.4109L144.839 16.8719C145.018 16.1545 145.377 15.7953 146.453 15.7953C147.172 15.7953 147.532 16.3332 147.532 16.8719L146.814 18.8473H149.506L150.044 16.5137C150.582 15.0779 149.506 13.1034 147.89 13.1034H143.404C141.968 13.1034 140.352 14.18 139.993 15.7953L137.481 24.0517C136.584 27.1028 138.02 28.1794 139.994 28.1794ZM81.6631 28.1794H85.7909C87.9432 28.1794 88.8411 26.9224 89.2003 25.4866L91.7136 16.5128C92.071 15.077 91.1757 13.1025 89.3807 13.1025H85.0717C83.4572 13.1025 82.0214 14.1791 81.4835 15.7944L78.9703 24.0508C78.0732 27.1028 79.509 28.1794 81.6631 28.1794ZM41.4597 27.999H49.8956C52.9467 27.999 54.2029 26.3845 54.7417 24.2304L57.7928 13.2821C58.3307 11.3075 57.4336 10.4105 55.9979 10.4105H52.9467C53.4846 10.4105 54.3825 11.128 54.2029 12.0259L50.7926 24.0517C50.613 24.7683 50.2539 25.1283 49.3569 25.1283H47.0232C46.1253 25.1283 45.5874 24.7691 45.9466 23.5138L49.3569 11.488C49.5364 10.9501 50.4335 9.87352 51.511 9.87352H57.0745L58.1511 7.36113H46.1261C43.9729 7.36113 41.9984 8.79691 41.4597 10.951L38.0494 22.4372C36.7932 26.5632 38.4085 27.999 41.4597 27.999ZM60.3052 28.1794C62.4584 28.1794 64.6125 27.2815 65.8687 26.204L65.33 24.7683C65.1504 24.7683 62.0992 26.204 62.8176 23.5129L67.1249 7.35938H61.3818L56.8949 23.8703C55.9979 26.9224 58.1511 28.1794 60.3052 28.1794ZM73.2281 19.3852L73.9455 16.8719C74.1251 16.1545 74.4834 15.7953 75.5609 15.7953C76.2783 15.7953 76.817 16.3332 76.6375 16.8719L75.92 19.3852H73.2281ZM69.8178 28.1794C75.023 28.1794 76.2792 26.3845 77.715 25.3079L76.6383 24.0508C75.2026 24.7674 74.126 25.3079 73.2281 25.3079C72.5097 25.3079 71.7923 24.7683 71.971 24.2295L72.5097 21.8967V21.718H77.8945L79.3303 16.5128C79.6895 15.077 78.612 13.1025 76.9966 13.1025H72.5097C71.0739 13.1025 69.4586 14.1791 69.0994 15.7944L66.587 24.0508C65.6891 27.1028 67.6637 28.1794 69.8178 28.1794ZM86.8684 24.4109L89.0225 16.8719C89.2012 16.3332 88.6633 15.7953 87.9441 15.7953C87.0479 15.7953 86.6888 16.1545 86.5083 16.8719L84.1755 24.4109C83.9968 24.9487 84.5347 25.4875 85.2539 25.4875C86.3296 25.4866 86.6888 25.1274 86.8684 24.4109Z" fill="#0C0E0F"/>
</svg>
